HIERARCHY
ROOT Hips
{
	OFFSET 0.000000 0.000000 0.000000
	CHANNELS 6 Xposition Yposition Zposition Yrotation Xrotation Zrotation 
	JOINT LeftHip
	{
		OFFSET 0.086059 -0.000429 0.000048
		CHANNELS 3 Yrotation Xrotation Zrotation
		JOINT LeftKnee
		{
			OFFSET 0.000000 -0.415789 0.000001
			CHANNELS 3 Yrotation Xrotation Zrotation
			JOINT LeftAnkle
			{
				OFFSET 0.000000 -0.468641 0.000230
				CHANNELS 3 Yrotation Xrotation Zrotation
				JOINT LeftToe
				{
					OFFSET 0.000000 -0.080523 0.174361
					CHANNELS 3 Yrotation Xrotation Zrotation
					End Site
					{
						OFFSET 0.000000 0.000000 0.000000
					}
				}
			}
		}
	}
	JOINT RightHip
	{
		OFFSET -0.086059 -0.000404 0.000045
		CHANNELS 3 Yrotation Xrotation Zrotation
		JOINT RightKnee
		{
			OFFSET 0.000000 -0.415789 0.000001
			CHANNELS 3 Yrotation Xrotation Zrotation
			JOINT RightAnkle
			{
				OFFSET 0.000000 -0.468641 0.000230
				CHANNELS 3 Yrotation Xrotation Zrotation
				JOINT RightToe
				{
					OFFSET 0.000000 -0.080523 0.174361
					CHANNELS 3 Yrotation Xrotation Zrotation
					End Site
					{
						OFFSET 0.000000 0.000000 0.000000
					}
				}
			}
		}
	}
	JOINT Chest
	{
		OFFSET 0.000000 0.105503 -0.011723
		CHANNELS 3 Yrotation Xrotation Zrotation
		JOINT Chest3
		{
			OFFSET 0.000000 0.218191 -0.010426
			CHANNELS 3 Yrotation Xrotation Zrotation
			JOINT Chest4
			{
				OFFSET 0.000000 0.104252 0.000170
				CHANNELS 3 Yrotation Xrotation Zrotation
				JOINT Neck
				{
					OFFSET 0.000000 0.146206 0.000000
					CHANNELS 3 Yrotation Xrotation Zrotation
					JOINT Head
					{
						OFFSET 0.000000 0.083446 0.000720
						CHANNELS 3 Yrotation Xrotation Zrotation
						End Site
						{
							OFFSET 0.000000 0.000000 0.000000
						}
					}
				}
				JOINT LeftCollar
				{
					OFFSET 0.031427 0.081855 0.000000
					CHANNELS 3 Yrotation Xrotation Zrotation
					JOINT LeftShoulder
					{
						OFFSET 0.143661 0.000000 0.000000
						CHANNELS 3 Yrotation Xrotation Zrotation
						JOINT LeftElbow
						{
							OFFSET 0.312275 0.000000 0.000000
							CHANNELS 3 Yrotation Xrotation Zrotation
							JOINT LeftWrist
							{
								OFFSET 0.224042 0.000000 -0.000056
								CHANNELS 3 Yrotation Xrotation Zrotation
								End Site
								{
									OFFSET 0.000000 0.000000 0.000000
								}
							}
						}
					}
				}
				JOINT RightCollar
				{
					OFFSET -0.031427 0.081855 0.000000
					CHANNELS 3 Yrotation Xrotation Zrotation
					JOINT RightShoulder
					{
						OFFSET -0.143661 0.000000 0.000000
						CHANNELS 3 Yrotation Xrotation Zrotation
						JOINT RightElbow
						{
							OFFSET -0.312275 0.000000 0.000000
							CHANNELS 3 Yrotation Xrotation Zrotation
							JOINT RightWrist
							{
								OFFSET -0.224042 0.000000 -0.000056
								CHANNELS 3 Yrotation Xrotation Zrotation
								End Site
								{
									OFFSET 0.000000 0.000000 0.000000
								}
							}
						}
					}
				}
			}
		}
	}
}
MOTION
Frames: 10
Frame Time: 0.016667
0.000000 0.000000 0.000000 -135.807816 0.638387 -0.625250 -6.055299 -10.539032 3.258764 -4.713854 16.196006 2.648383 11.945481 -3.078908 -4.401270 0.000000 -0.000000 0.000000 -19.420334 0.996135 -6.526540 0.362190 9.864278 -0.662491 -11.744368 -5.031226 9.833180 -0.008350 -3.825237 0.293014 5.511970 4.882338 -2.805543 5.165662 -1.499756 -2.510160 1.877136 7.426295 -0.795586 -11.034765 4.039902 0.601221 -22.971169 -27.396894 7.580712 -0.180434 -7.712989 -10.025224 6.102445 -0.782713 -73.198679 -106.729438 -26.730883 -25.204383 4.639697 3.557409 22.670142 3.166700 -7.807159 -0.588902 61.994116 -29.330878 -2.711989 46.816190 -49.875262 -38.269682 -0.011722 6.553150 -2.032051 
0.000000 0.000000 0.000000 -135.696669 0.683437 -0.651333 -6.129241 -10.600749 3.333304 -4.694899 16.195305 2.647254 11.876635 -3.042636 -4.421046 0.000000 -0.000000 0.000000 -19.436177 1.055525 -6.469782 0.302860 9.746049 -0.617543 -11.781815 -5.006921 9.784931 -0.008103 -3.841219 0.281417 5.498034 4.888413 -2.787148 5.151546 -1.494310 -2.493797 1.872319 7.428609 -0.789882 -10.984549 4.011583 0.587854 -22.869382 -27.461047 7.534283 -0.185147 -7.740843 -10.036883 5.827409 -0.802863 -73.272667 -106.865927 -26.697177 -25.007302 4.625323 3.538673 22.692932 3.144986 -7.802888 -0.601165 61.987394 -29.413503 -2.737410 46.852196 -49.827476 -38.241360 0.100237 6.517842 -1.887525 
0.000000 0.000000 0.000000 -135.587040 0.725849 -0.685194 -6.178676 -10.673829 3.396544 -4.693517 16.216064 2.664938 11.808334 -3.016056 -4.439869 0.000000 -0.000000 0.000000 -19.532120 1.099403 -6.419422 0.260548 9.638175 -0.566463 -11.752261 -4.975833 9.733500 -0.007838 -3.873907 0.267369 5.482673 4.897100 -2.764331 5.135751 -1.486535 -2.473510 1.866997 7.431850 -0.782769 -10.934811 3.981425 0.579694 -22.771887 -27.527318 7.499069 -0.190554 -7.755346 -10.047246 5.557115 -0.836546 -73.355504 -106.995524 -26.676654 -24.847367 4.610920 3.529106 22.695514 3.119387 -7.796282 -0.615500 61.985929 -29.504262 -2.764918 46.798008 -49.718803 -38.147540 0.210809 6.500210 -1.822926 
0.000000 0.000000 0.000000 -135.494148 0.768131 -0.718118 -6.171609 -10.745383 3.443665 -4.737226 16.229862 2.690832 11.747820 -2.989594 -4.459647 0.000000 -0.000000 0.000000 -19.601742 1.126699 -6.364632 0.228074 9.555097 -0.523162 -11.743231 -4.952071 9.686308 -0.007627 -3.900051 0.256465 5.470427 4.902913 -2.741346 5.122702 -1.481322 -2.453086 1.862702 7.434113 -0.775496 -10.889672 3.958576 0.572887 -22.682458 -27.579024 7.466979 -0.202422 -7.758769 -10.063050 5.307855 -0.870437 -73.427857 -107.122379 -26.653651 -24.714781 4.598412 3.519888 22.682293 3.090123 -7.788428 -0.635005 61.987447 -29.582804 -2.777417 46.738916 -49.623896 -38.068640 0.310278 6.476627 -1.794477 
0.000000 0.000000 0.000000 -135.418352 0.811284 -0.749559 -6.064160 -10.814701 3.464626 -4.867470 16.230623 2.728225 11.694383 -2.962950 -4.482077 0.000000 -0.000000 0.000000 -19.616536 1.137189 -6.299296 0.210577 9.503696 -0.493169 -11.789174 -4.941831 9.647585 -0.007492 -3.909352 0.250536 5.462479 4.902702 -2.717530 5.113385 -1.481471 -2.431940 1.859806 7.434349 -0.767783 -10.850845 3.948316 0.565596 -22.602192 -27.606599 7.433802 -0.227807 -7.744182 -10.088628 5.081012 -0.900123 -73.481223 -107.256372 -26.625522 -24.602824 4.590406 3.502553 22.657462 3.052283 -7.779484 -0.663234 61.992874 -29.634175 -2.765199 46.691134 -49.561772 -38.031613 0.387162 6.444826 -1.819483 
0.000000 0.000000 0.000000 -135.359291 0.854274 -0.780098 -5.900100 -10.882573 3.469127 -5.042826 16.224364 2.773745 11.648735 -2.936415 -4.505468 0.000000 -0.000000 0.000000 -19.605087 1.130935 -6.229600 0.202934 9.477045 -0.471072 -11.855601 -4.938998 9.613078 -0.007425 -3.912111 0.247753 5.457634 4.899627 -2.693570 5.106806 -1.484174 -2.410679 1.857935 7.433611 -0.759918 -10.816609 3.945365 0.559747 -22.530120 -27.619631 7.404011 -0.259695 -7.718530 -10.119603 4.875165 -0.929807 -73.524054 -107.387408 -26.595081 -24.518266 4.584300 3.485481 22.616844 3.010767 -7.769312 -0.696638 62.001139 -29.673329 -2.737878 46.638239 -49.513462 -38.009356 0.452919 6.407132 -1.880591 
0.000000 0.000000 0.000000 -135.331093 0.896507 -0.802738 -5.778913 -10.938354 3.482282 -5.166479 16.200875 2.806786 11.620234 -2.901274 -4.526661 0.000000 -0.000000 0.000000 -19.546597 1.107002 -6.163170 0.182610 9.468746 -0.454544 -11.926589 -4.939349 9.577419 -0.007466 -3.915973 0.248234 5.456840 4.897683 -2.675762 5.104411 -1.485886 -2.394889 1.857488 7.433157 -0.754007 -10.785932 3.943027 0.557162 -22.466938 -27.630161 7.382592 -0.282723 -7.704889 -10.149673 4.702409 -0.958947 -73.562733 -107.489476 -26.554990 -24.471595 4.574222 3.485139 22.552283 2.980508 -7.758540 -0.727670 62.006891 -29.724785 -2.707293 46.615603 -49.496784 -38.000120 0.532157 6.346612 -1.881841 
0.000000 0.000000 0.000000 -135.343440 0.939267 -0.814015 -5.743047 -10.977189 3.515203 -5.196599 16.151088 2.819341 11.615624 -2.852309 -4.544187 0.000000 -0.000000 0.000000 -19.410951 1.065185 -6.100057 0.130196 9.472946 -0.444253 -12.004456 -4.939207 9.536644 -0.007681 -3.926480 0.253238 5.462060 4.898934 -2.667653 5.108289 -1.484778 -2.387725 1.859170 7.433627 -0.751198 -10.758737 3.939214 0.560333 -22.414442 -27.641515 7.375144 -0.288985 -7.715655 -10.177637 4.577407 -0.992368 -73.594377 -107.550579 -26.498996 -24.477976 4.555770 3.512601 22.444835 2.969105 -7.749574 -0.753106 62.014262 -29.806459 -2.681624 46.619820 -49.521999 -38.000652 0.632985 6.256135 -1.785005 
0.000000 0.000000 0.000000 -135.386630 0.981235 -0.817468 -5.750079 -11.003779 3.557188 -5.174950 16.084162 2.819499 11.628159 -2.794708 -4.559489 0.000000 -0.000000 0.000000 -19.228330 1.005583 -6.040468 0.065079 9.495475 -0.439515 -12.086875 -4.942261 9.494715 -0.008008 -3.938090 0.261507 5.471316 4.901338 -2.665705 5.116339 -1.482659 -2.386038 1.862272 7.434390 -0.750346 -10.735093 3.935999 0.566772 -22.370839 -27.650434 7.376097 -0.286349 -7.738433 -10.204723 4.485514 -1.025154 -73.622056 -107.582692 -26.433788 -24.522069 4.533320 3.556792 22.313382 2.968964 -7.740001 -0.776199 62.019130 -29.900420 -2.652641 46.654204 -49.578839 -38.014010 0.746664 6.142727 -1.628150 
0.000000 0.000000 0.000000 -135.445707 1.017901 -0.816600 -5.772229 -11.021833 3.600879 -5.130110 16.017237 2.810820 11.646960 -2.735362 -4.573776 0.000000 -0.000000 0.000000 -19.068384 0.927862 -5.992129 0.022911 9.547489 -0.435936 -12.150963 -4.955301 9.458176 -0.008286 -3.941827 0.269378 5.479651 4.902740 -2.665572 5.123739 -1.481431 -2.385957 1.865077 7.434806 -0.750110 -10.714190 3.932926 0.570802 -22.331413 -27.659085 7.373628 -0.283090 -7.759102 -10.228266 4.394867 -1.042266 -73.661150 -107.595731 -26.371456 -24.568576 4.514350 3.601048 22.206504 2.972231 -7.723216 -0.799122 62.003714 -29.977410 -2.607483 46.764182 -49.654261 -38.047789 0.872570 6.010687 -1.429832 
